<?xml version="1.0" encoding="UTF-8"?>
<svg id="Layer_1" xmlns="http://www.w3.org/2000/svg" viewBox="0 0 541.19 165.15">
  <defs>
    <style>
      .cls-1 {
        fill: #fff;
      }
    </style>
  </defs>
  <g>
    <path class="cls-1" d="M174.77,147.29l7.91,16.91c.1.2.1.36.02.49-.09.13-.24.19-.45.19h-3.21c-.33,0-.57-.18-.73-.54l-.62-1.46h-7.56l-.6,1.44c-.13.36-.37.54-.74.54h-3.18c-.23,0-.38-.06-.47-.19-.08-.12-.08-.29,0-.49l7.89-16.91c.17-.36.43-.54.79-.54h.18c.35,0,.6.18.76.55ZM173.93,153.93l-2.33,5.53h4.67l-2.33-5.53Z"/>
    <path class="cls-1" d="M194.57,164.27v-16.67c0-.16.06-.3.18-.42.12-.11.27-.17.45-.17h7.04c1.78,0,3.38.38,4.79,1.14,1.42.77,2.52,1.83,3.3,3.18.79,1.35,1.19,2.89,1.19,4.6,0,1.28-.23,2.47-.68,3.57-.46,1.1-1.1,2.05-1.92,2.84-.83.79-1.83,1.41-2.98,1.84-1.16.44-2.4.66-3.73.66h-7.01c-.18,0-.33-.06-.45-.17-.12-.11-.18-.25-.18-.42ZM198.69,150.76v10.3h3.51c1.49,0,2.73-.49,3.7-1.48.98-1,1.48-2.22,1.48-3.64s-.49-2.72-1.46-3.71c-.97-.99-2.19-1.49-3.68-1.48h-3.54Z"/>
    <path class="cls-1" d="M235.34,147.01h3.19c.23,0,.38.06.46.19.08.13.08.29-.01.48l-7.93,16.81c-.19.44-.47.66-.82.66h-.06c-.36,0-.64-.22-.85-.66l-7.9-16.8c-.09-.21-.09-.38,0-.5.08-.12.24-.18.47-.18h3.18c.34,0,.59.18.75.53l4.39,9.86,4.39-9.86c.16-.35.41-.53.74-.53Z"/>
    <path class="cls-1" d="M248.91,155.97c0-1.29.25-2.5.74-3.63,1.02-2.31,2.71-3.94,5.07-4.9,1.18-.48,2.43-.72,3.75-.72s2.58.24,3.74.72c1.19.49,2.21,1.14,3.05,1.95.84.81,1.51,1.79,2.02,2.95.5,1.15.75,2.36.75,3.63s-.25,2.47-.75,3.62-1.17,2.13-2.02,2.92c-.85.81-1.86,1.46-3.05,1.94-1.17.47-2.42.71-3.74.71-1.77,0-3.38-.4-4.84-1.21s-2.61-1.91-3.46-3.31c-.84-1.42-1.26-2.97-1.26-4.66ZM253.02,155.97c0,1.48.52,2.72,1.57,3.71,1.05.99,2.34,1.49,3.87,1.49s2.82-.5,3.87-1.49c1.05-.99,1.57-2.23,1.57-3.71s-.53-2.73-1.59-3.73c-1.05-1.02-2.33-1.53-3.86-1.53s-2.82.51-3.87,1.53c-1.05,1.01-1.57,2.26-1.57,3.73Z"/>
    <path class="cls-1" d="M288.85,155.34h6c.14,0,.25.04.33.12.08.08.13.18.13.32v7.14c0,.12-.03.24-.1.36s-.15.22-.24.27c-.68.45-1.61.83-2.78,1.14-1.15.31-2.24.46-3.26.46-1.78,0-3.41-.4-4.88-1.21-1.48-.81-2.64-1.92-3.5-3.32-.85-1.4-1.28-2.96-1.28-4.68s.42-3.25,1.27-4.66c.85-1.41,2.02-2.52,3.5-3.34,1.48-.81,3.11-1.22,4.88-1.22.94,0,1.94.16,3,.48,1.06.32,1.93.75,2.59,1.29.13.1.21.23.24.39s0,.3-.09.42l-1.66,2.42c-.09.14-.21.22-.37.23-.16.01-.31-.04-.45-.15-.43-.35-.93-.63-1.52-.82s-1.16-.29-1.72-.29c-1.55,0-2.86.51-3.93,1.53-1.07,1.01-1.61,2.25-1.61,3.72s.52,2.79,1.56,3.84c1.05,1.04,2.38,1.56,3.98,1.56.36,0,.79-.06,1.27-.19.5-.13.9-.29,1.19-.46v-2.03h-2.54c-.3,0-.45-.15-.45-.44v-2.45c0-.29.15-.44.45-.44Z"/>
    <path class="cls-1" d="M316.25,147.29l7.91,16.91c.1.2.1.36.02.49-.08.13-.24.19-.45.19h-3.21c-.33,0-.57-.18-.73-.54l-.62-1.46h-7.56l-.61,1.44c-.13.36-.37.54-.74.54h-3.18c-.23,0-.38-.06-.47-.19-.08-.12-.08-.29,0-.49l7.89-16.91c.17-.36.43-.54.79-.54h.18c.35,0,.6.18.76.55ZM315.41,153.93l-2.34,5.53h4.67l-2.33-5.53Z"/>
    <path class="cls-1" d="M336.05,164.27v-16.67c0-.16.06-.3.18-.42.12-.11.27-.17.45-.17h7.04c1.78,0,3.38.38,4.79,1.14,1.42.77,2.52,1.83,3.3,3.18.79,1.35,1.19,2.89,1.19,4.6,0,1.28-.23,2.47-.68,3.57-.46,1.1-1.09,2.05-1.92,2.84-.83.79-1.83,1.41-2.98,1.84-1.16.44-2.4.66-3.73.66h-7.01c-.18,0-.33-.06-.45-.17-.12-.11-.18-.25-.18-.42ZM340.17,150.76v10.3h3.51c1.49,0,2.73-.49,3.7-1.48.98-1,1.48-2.22,1.48-3.64s-.49-2.72-1.46-3.71c-.97-.99-2.19-1.49-3.68-1.48h-3.54Z"/>
    <path class="cls-1" d="M372.37,147.29l7.91,16.91c.1.2.1.36.02.49-.08.13-.24.19-.45.19h-3.21c-.33,0-.57-.18-.73-.54l-.62-1.46h-7.56l-.61,1.44c-.13.36-.37.54-.74.54h-3.18c-.23,0-.38-.06-.47-.19-.08-.12-.08-.29,0-.49l7.89-16.91c.17-.36.43-.54.79-.54h.18c.35,0,.6.18.76.55ZM371.52,153.93l-2.34,5.53h4.67l-2.33-5.53Z"/>
  </g>
  <g>
    <path class="cls-1" d="M184.21,75.24c-3.2,0-6.15-.56-8.83-1.68-2.68-1.12-5-2.67-6.95-4.66-1.95-1.99-3.45-4.34-4.51-7.06-1.06-2.72-1.59-5.66-1.59-8.83s.54-6,1.62-8.62c1.08-2.62,2.6-4.9,4.57-6.83s4.3-3.42,7-4.49c2.7-1.06,5.65-1.59,8.86-1.59,2.51,0,4.68.22,6.51.67,1.83.44,3.3.93,4.4,1.45,1.1.52,1.8.94,2.11,1.24l-2.55,5.44c-.27-.23-.81-.58-1.62-1.04-.81-.46-1.94-.89-3.39-1.27-1.45-.39-3.31-.58-5.58-.58-3.16,0-5.87.69-8.1,2.05-2.24,1.37-3.96,3.21-5.15,5.53-1.2,2.32-1.79,4.88-1.79,7.7,0,3.28.66,6.18,1.97,8.71,1.31,2.53,3.11,4.5,5.38,5.9,2.28,1.41,4.86,2.11,7.76,2.11,1.66,0,3.35-.21,5.06-.64s3.17-1.14,4.37-2.14v-8.22h-8.74v-5.96h15.16v16.67c-1.27,1.62-3.28,3.05-6.02,4.28-2.74,1.24-6.06,1.85-9.96,1.85Z"/>
    <path class="cls-1" d="M219.34,74.66v-42.54h6.48v42.54h-6.48Z"/>
    <path class="cls-1" d="M266.16,75.24c-2.89,0-5.62-.5-8.19-1.5-2.57-1-4.83-2.46-6.8-4.37-1.97-1.91-3.52-4.21-4.66-6.92-1.14-2.7-1.71-5.75-1.71-9.14s.57-6.5,1.71-9.2c1.14-2.7,2.7-5,4.69-6.89,1.99-1.89,4.26-3.33,6.83-4.31,2.57-.98,5.28-1.48,8.13-1.48s5.57.49,8.13,1.48c2.57.98,4.84,2.42,6.83,4.31,1.99,1.89,3.55,4.19,4.69,6.89,1.14,2.7,1.71,5.77,1.71,9.2s-.57,6.44-1.71,9.14c-1.14,2.7-2.69,5.01-4.66,6.92-1.97,1.91-4.23,3.37-6.8,4.37-2.57,1-5.3,1.5-8.19,1.5ZM266.16,69.39c2.62,0,5.04-.62,7.23-1.85,2.2-1.23,3.95-3.04,5.27-5.41,1.31-2.37,1.97-5.29,1.97-8.77s-.66-6.45-1.97-8.83c-1.31-2.37-3.06-4.17-5.24-5.38-2.18-1.22-4.6-1.82-7.26-1.82s-5.08.61-7.26,1.82c-2.18,1.21-3.93,3.01-5.24,5.38-1.31,2.37-1.97,5.32-1.97,8.83s.67,6.4,2.03,8.77c1.35,2.37,3.13,4.18,5.33,5.41,2.2,1.24,4.57,1.85,7.12,1.85Z"/>
    <path class="cls-1" d="M319.29,74.66l-19.68-42.54h7.35l12.73,29.23,12.79-29.23h7.29l-19.62,42.54h-.87Z"/>
    <path class="cls-1" d="M364.55,32.06h.64l20.49,42.6h-7.47l-3.65-8.33h-19.5l-3.65,8.33h-7.23l20.37-42.6ZM364.84,44.39l-2.55,5.79-4.63,10.3h14.35l-4.57-10.24-2.49-5.85h-.12Z"/>
    <path class="cls-1" d="M431.81,74.66l-24.89-27.55.17,4.63v22.92h-6.48v-42.6h.81l25,27.9-.23-4.86v-22.98h6.48v42.54h-.87Z"/>
    <path class="cls-1" d="M483.9,74.66l-24.89-27.55.17,4.63v22.92h-6.48v-42.6h.81l25,27.9-.23-4.86v-22.98h6.48v42.54h-.87Z"/>
    <path class="cls-1" d="M520.07,32.06h.64l20.49,42.6h-7.47l-3.65-8.33h-19.5l-3.65,8.33h-7.23l20.37-42.6ZM520.36,44.39l-2.55,5.79-4.63,10.3h14.35l-4.57-10.24-2.49-5.85h-.12Z"/>
  </g>
  <g>
    <path class="cls-1" d="M179.37,130.75c-3.6,0-6.49-.73-8.65-2.2-2.16-1.46-3.72-3.57-4.67-6.31-.96-2.74-1.44-5.99-1.44-9.74v-23.71h6.31v23.82c0,4.39.67,7.54,2,9.43,1.33,1.9,3.48,2.84,6.45,2.84s5.11-.92,6.42-2.76c1.31-1.84,1.97-5.01,1.97-9.52v-23.82h6.36v23.71c0,5.78-1.2,10.27-3.6,13.46-2.4,3.19-6.12,4.79-11.15,4.79Z"/>
    <path class="cls-1" d="M213.33,130.19v-41.39h9.41c2.1,0,4.14.21,6.11.62,1.97.41,3.73,1.11,5.27,2.08,1.54.98,2.76,2.27,3.66,3.89.9,1.62,1.35,3.6,1.35,5.97,0,2.74-.64,5.12-1.91,7.15-1.28,2.03-3.21,3.59-5.8,4.67l9.86,17.01h-7.27l-8.34-15.66c-.64.04-1.42.07-2.34.08-.92.02-1.68.03-2.28.03h-1.58v15.54h-6.14ZM219.47,109.52h4c2.06,0,3.73-.26,4.98-.79,1.26-.53,2.22-1.19,2.9-2s1.14-1.69,1.38-2.65c.24-.96.37-1.85.37-2.67,0-1.84-.42-3.29-1.27-4.36-.84-1.07-2.01-1.84-3.49-2.31-1.48-.47-3.18-.7-5.1-.7h-3.77v15.49Z"/>
    <path class="cls-1" d="M277.36,130.75c-2.82,0-5.47-.49-7.97-1.46-2.5-.98-4.7-2.39-6.62-4.25-1.92-1.86-3.43-4.1-4.53-6.73-1.11-2.63-1.66-5.59-1.66-8.9s.55-6.33,1.66-8.96c1.11-2.63,2.63-4.86,4.56-6.7,1.93-1.84,4.15-3.24,6.65-4.2,2.5-.96,5.13-1.44,7.91-1.44s5.42.48,7.91,1.44c2.5.96,4.71,2.36,6.65,4.2,1.93,1.84,3.45,4.07,4.56,6.7,1.11,2.63,1.66,5.61,1.66,8.96,0,4.17-.86,7.79-2.59,10.87-1.73,3.08-4,5.5-6.81,7.27l5.13,7.94h-6.25l-3.72-5.69c-2.1.64-4.28.96-6.53.96ZM277.36,125.06c1.13,0,2.21-.11,3.27-.34l-3.77-6.14h6.31l2.42,3.94c1.76-1.28,3.18-3.01,4.25-5.21,1.07-2.2,1.6-4.82,1.6-7.86,0-3.42-.64-6.28-1.91-8.59-1.28-2.31-2.98-4.05-5.1-5.24-2.12-1.18-4.48-1.77-7.07-1.77s-4.95.59-7.07,1.77c-2.12,1.18-3.82,2.93-5.1,5.24-1.28,2.31-1.91,5.17-1.91,8.59s.66,6.22,1.97,8.53c1.31,2.31,3.04,4.06,5.18,5.27,2.14,1.2,4.45,1.8,6.93,1.8Z"/>
    <path class="cls-1" d="M330.58,130.75c-3.6,0-6.49-.73-8.65-2.2-2.16-1.46-3.72-3.57-4.67-6.31-.96-2.74-1.44-5.99-1.44-9.74v-23.71h6.31v23.82c0,4.39.67,7.54,2,9.43,1.33,1.9,3.48,2.84,6.45,2.84s5.11-.92,6.42-2.76c1.31-1.84,1.97-5.01,1.97-9.52v-23.82h6.36v23.71c0,5.78-1.2,10.27-3.6,13.46-2.4,3.19-6.12,4.79-11.15,4.79Z"/>
    <path class="cls-1" d="M364.94,130.19v-41.39h6.31v41.39h-6.31Z"/>
    <path class="cls-1" d="M401.32,130.75c-1.58,0-3.13-.2-4.67-.59-1.54-.39-2.91-.88-4.11-1.46-1.2-.58-2.1-1.17-2.7-1.77l2.98-5.35c.41.34,1.06.78,1.94,1.32.88.54,1.91,1.02,3.07,1.44,1.16.41,2.33.62,3.49.62,1.91,0,3.52-.45,4.82-1.35,1.3-.9,1.94-2.22,1.94-3.94,0-1.43-.38-2.61-1.13-3.55-.75-.94-1.74-1.76-2.96-2.48-1.22-.71-2.53-1.4-3.94-2.06-1.41-.66-2.75-1.4-4.03-2.22-1.46-.98-2.74-2.27-3.83-3.89-1.09-1.61-1.63-3.7-1.63-6.25s.57-4.58,1.72-6.19c1.14-1.61,2.67-2.82,4.56-3.63,1.9-.81,3.97-1.21,6.22-1.21,1.8,0,3.34.19,4.62.56,1.28.38,2.35.83,3.21,1.35.86.53,1.54,1,2.03,1.41l-2.98,5.12c-.64-.68-1.6-1.3-2.87-1.89-1.28-.58-2.7-.87-4.28-.87-1.84,0-3.3.42-4.39,1.27-1.09.84-1.63,2.09-1.63,3.74,0,1.46.49,2.71,1.46,3.74.98,1.03,2.22,1.97,3.75,2.82,1.52.84,3.09,1.7,4.7,2.56,1.61.86,3.04,1.88,4.28,3.04,1.01.9,1.88,2.03,2.59,3.38.71,1.35,1.07,2.87,1.07,4.56,0,2.55-.59,4.71-1.77,6.48-1.18,1.76-2.77,3.09-4.76,3.97-1.99.88-4.24,1.32-6.76,1.32Z"/>
    <path class="cls-1" d="M446.93,88.74h.62l19.94,41.45h-7.27l-3.55-8.11h-18.98l-3.55,8.11h-7.04l19.82-41.45ZM447.22,100.73l-2.48,5.63-4.51,10.03h13.97l-4.45-9.97-2.42-5.69h-.11Z"/>
  </g>
  <g>
    <path class="cls-1" d="M104.54,109.95c3.52-.51,6.27-3.43,6.51-7.04.01-.17.02-.35.02-.52v-45.52c0-2.27-1.84-4.12-4.12-4.12h-28.43c-.87,0-1.57.7-1.57,1.57v3.98c0,.87.7,1.57,1.57,1.57h25.43v39.22c0,2.11-1.71,3.82-3.82,3.82h-21.61c-.87,0-1.57.7-1.57,1.57v3.98c0,.87.7,1.57,1.57,1.57h24.91c.38,0,.75-.03,1.11-.08Z"/>
    <path class="cls-1" d="M127.66,101.46h-2.21c-1.36,0-2.45,1.1-2.45,2.45v50.3c0,2.11-1.71,3.82-3.82,3.82h-52.77v-11.26h0s0-6.28,0-6.28V54.32c0-.87-.7-1.57-1.57-1.57h-3.98c-.87,0-1.57.7-1.57,1.57v48.59h-30.3c-2.11,0-3.82-1.71-3.82-3.82V11.79h0v-.86c0-2.11,1.71-3.82,3.82-3.82h25.6c1.93,0,3.65-1.44,3.75-3.37.11-2.05-1.52-3.75-3.55-3.75h-29.1c-.18,0-.35,0-.52.02-3.98.27-7.12,3.58-7.12,7.62v45.87h0v48.87c0,.18,0,.35.02.52.27,3.98,3.58,7.12,7.62,7.12h33.6v40.55h0v13c0,.87.7,1.57,1.57,1.57h61.62c4.04,0,7.35-3.14,7.62-7.12.01-.17.02-.35.02-.52v-53.59c0-1.36-1.1-2.45-2.45-2.45Z"/>
    <path class="cls-1" d="M.28,9.61c0,.21,0,.42.03.63.02.11.04.22.04.33,0,.1.01.19.01.29L0,159.6c0,3.07,2.48,5.56,5.54,5.56h0c.87,0,1.57-.7,1.57-1.57l.35-146.77h.02V2.42c-.62,0-1.23.08-1.8.23C2.58,3.45.28,6.27.28,9.61Z"/>
    <path class="cls-1" d="M43.25,120.23c-.61-.61-1.44-1-2.36-1.04-2.04-.09-3.72,1.71-3.72,3.75v11.53c0,.09,0,.17,0,.26s0,.18,0,.28v26.59c0,.1,0,.2.01.3v1.68c-.01.87.69,1.58,1.56,1.58h3.97c.87,0,1.57-.7,1.57-1.57v-40.84c0-.39-.06-.77-.18-1.12-.18-.53-.48-1.01-.86-1.4Z"/>
    <path class="cls-1" d="M24.97,121.63c-.18-.53-.47-1.01-.86-1.4-.61-.61-1.44-1-2.36-1.04-2.04-.09-3.72,1.71-3.72,3.75v11.79s0,26.86,0,26.86c0,.12,0,.24.02.35h0s0,1.63,0,1.63c0,.87.7,1.58,1.57,1.58h3.97c.87,0,1.57-.7,1.57-1.57v-40.84c0-.39-.07-.77-.18-1.12Z"/>
  </g>
</svg>