<?xml version="1.0" encoding="UTF-8"?>
<svg id="Layer_1" xmlns="http://www.w3.org/2000/svg" xmlns:xlink="http://www.w3.org/1999/xlink" viewBox="0 0 840.26 256.41">
  <defs>
    <style>
      .cls-1 {
        fill: #6c1429;
      }

      .cls-2 {
        fill: none;
      }

      .cls-3 {
        clip-path: url(#clippath-1);
      }

      .cls-4 {
        clip-path: url(#clippath);
      }
    </style>
    <clipPath id="clippath">
      <rect class="cls-2" width="840.26" height="256.41"/>
    </clipPath>
    <clipPath id="clippath-1">
      <rect class="cls-2" width="840.26" height="256.41"/>
    </clipPath>
  </defs>
  <g id="Horizontal_revisada">
    <g class="cls-4">
      <g class="cls-3">
        <path class="cls-1" d="M271.37,228.67l12.29,26.26c.15.3.16.56.03.75-.13.2-.37.3-.71.3h-4.98c-.51,0-.89-.28-1.13-.84l-.96-2.26h-11.74l-.94,2.24c-.2.56-.58.84-1.15.84h-4.94c-.35,0-.59-.1-.72-.29-.13-.19-.13-.45.01-.76l12.25-26.26c.26-.56.67-.84,1.22-.84h.28c.54,0,.93.29,1.18.86M270.05,238.99l-3.63,8.59h7.25l-3.63-8.59Z"/>
        <path class="cls-1" d="M302.1,255.04v-25.88c0-.26.09-.47.28-.65.19-.17.42-.26.69-.26h10.93c2.77,0,5.25.59,7.44,1.77,2.2,1.19,3.91,2.84,5.13,4.94,1.23,2.1,1.84,4.49,1.84,7.15,0,1.98-.35,3.83-1.06,5.55-.71,1.71-1.7,3.19-2.98,4.41-1.29,1.23-2.83,2.18-4.63,2.86-1.8.68-3.73,1.02-5.8,1.02h-10.88c-.27,0-.51-.09-.69-.27-.19-.17-.28-.39-.28-.65M308.51,234.07v15.99h5.45c2.32,0,4.23-.76,5.75-2.3,1.53-1.56,2.29-3.44,2.29-5.65s-.76-4.22-2.27-5.76c-1.5-1.54-3.41-2.31-5.71-2.3l-5.5.02Z"/>
        <path class="cls-1" d="M365.41,228.25h4.96c.35,0,.59.1.71.29.13.2.12.45-.02.75l-12.31,26.1c-.3.68-.73,1.02-1.28,1.02h-.09c-.55,0-.99-.34-1.32-1.02l-12.27-26.08c-.14-.33-.14-.59,0-.78.13-.19.37-.28.72-.28h4.94c.53,0,.91.27,1.17.82l6.82,15.3,6.82-15.3c.25-.55.63-.82,1.14-.82"/>
        <path class="cls-1" d="M386.47,242.15c0-2.01.38-3.89,1.15-5.64,1.58-3.59,4.2-6.12,7.87-7.6,1.83-.74,3.77-1.11,5.82-1.11s4,.37,5.81,1.11c1.85.75,3.43,1.76,4.73,3.03,1.3,1.25,2.35,2.78,3.14,4.58.78,1.79,1.16,3.67,1.16,5.64s-.39,3.83-1.16,5.62-1.82,3.3-3.14,4.54c-1.32,1.26-2.89,2.27-4.73,3.01-1.82.73-3.75,1.1-5.81,1.1-2.74,0-5.25-.63-7.51-1.88-2.27-1.25-4.06-2.97-5.37-5.14-1.3-2.2-1.95-4.61-1.95-7.24M392.85,242.15c0,2.3.81,4.22,2.44,5.76,1.63,1.54,3.63,2.32,6.01,2.32s4.38-.77,6.01-2.32c1.63-1.54,2.44-3.47,2.44-5.76s-.82-4.23-2.46-5.8c-1.63-1.58-3.63-2.37-5.99-2.37s-4.38.79-6.01,2.37c-1.63,1.57-2.44,3.5-2.44,5.8"/>
        <path class="cls-1" d="M448.48,241.18h9.32c.21,0,.39.06.52.18.13.12.2.29.2.49v11.09c0,.18-.05.37-.15.57-.1.2-.23.33-.38.42-1.06.69-2.5,1.28-4.32,1.77-1.79.47-3.47.71-5.06.71-2.77,0-5.29-.63-7.57-1.88-2.29-1.25-4.1-2.97-5.43-5.16-1.33-2.18-1.99-4.6-1.99-7.26s.66-5.05,1.97-7.24c1.33-2.19,3.14-3.92,5.43-5.18,2.3-1.26,4.83-1.9,7.57-1.9,1.46,0,3.02.25,4.66.75,1.65.5,2.99,1.17,4.02,2.01.2.16.32.36.36.6.04.24,0,.46-.14.66l-2.57,3.76c-.14.22-.33.34-.58.36-.25.02-.48-.06-.7-.23-.66-.55-1.45-.97-2.37-1.28-.91-.3-1.8-.45-2.67-.45-2.4,0-4.44.79-6.1,2.37-1.67,1.57-2.5,3.49-2.5,5.78s.81,4.33,2.42,5.96c1.63,1.62,3.69,2.43,6.18,2.43.57,0,1.22-.1,1.97-.29.78-.21,1.39-.45,1.84-.71v-3.15h-3.95c-.46,0-.7-.23-.7-.68v-3.81c0-.45.23-.68.7-.68"/>
        <path class="cls-1" d="M491.03,228.67l12.29,26.26c.15.3.16.56.03.75-.13.2-.37.3-.7.3h-4.98c-.51,0-.89-.28-1.13-.84l-.96-2.26h-11.74l-.94,2.24c-.2.56-.58.84-1.15.84h-4.94c-.35,0-.59-.1-.72-.29-.13-.19-.13-.45,0-.76l12.25-26.26c.26-.56.67-.84,1.22-.84h.28c.54,0,.93.29,1.18.86M489.71,238.99l-3.63,8.59h7.25l-3.63-8.59Z"/>
        <path class="cls-1" d="M521.76,255.04v-25.88c0-.26.09-.47.28-.65.19-.17.42-.26.69-.26h10.93c2.77,0,5.25.59,7.44,1.77,2.2,1.19,3.91,2.84,5.13,4.94,1.23,2.1,1.84,4.49,1.84,7.15,0,1.98-.35,3.83-1.06,5.55-.71,1.71-1.7,3.19-2.98,4.41-1.29,1.23-2.83,2.18-4.63,2.86-1.8.68-3.73,1.02-5.8,1.02h-10.88c-.27,0-.51-.09-.69-.27-.19-.17-.28-.39-.28-.65M528.17,234.07v15.99h5.45c2.32,0,4.23-.76,5.75-2.3,1.53-1.56,2.29-3.44,2.29-5.65s-.76-4.22-2.27-5.76c-1.5-1.54-3.41-2.31-5.71-2.3l-5.5.02Z"/>
        <path class="cls-1" d="M578.15,228.67l12.29,26.26c.15.3.16.56.03.75-.13.2-.37.3-.7.3h-4.98c-.51,0-.89-.28-1.13-.84l-.96-2.26h-11.74l-.94,2.24c-.2.56-.58.84-1.15.84h-4.94c-.35,0-.59-.1-.72-.29-.13-.19-.13-.45,0-.76l12.25-26.26c.26-.56.67-.84,1.22-.84h.28c.54,0,.93.29,1.18.86M576.84,238.99l-3.63,8.59h7.25l-3.63-8.59Z"/>
        <path class="cls-1" d="M286.01,116.81c-4.97,0-9.54-.87-13.7-2.61-4.17-1.74-7.76-4.15-10.78-7.23-3.03-3.08-5.36-6.74-7.01-10.96-1.65-4.22-2.47-8.79-2.47-13.7s.84-9.31,2.52-13.39c1.68-4.07,4.04-7.61,7.1-10.6,3.06-2.99,6.68-5.32,10.87-6.96,4.19-1.65,8.78-2.47,13.75-2.47,3.89,0,7.26.35,10.11,1.03,2.84.69,5.12,1.44,6.83,2.25,1.71.81,2.8,1.45,3.28,1.93l-3.95,8.45c-.42-.36-1.26-.9-2.52-1.62-1.26-.72-3.01-1.38-5.26-1.97-2.25-.6-5.14-.9-8.67-.9-4.91,0-9.11,1.07-12.58,3.19-3.47,2.13-6.14,4.99-8,8.58-1.86,3.6-2.79,7.58-2.79,11.95,0,5.09,1.02,9.6,3.06,13.52,2.04,3.92,4.82,6.98,8.36,9.16,3.53,2.19,7.55,3.28,12.04,3.28,2.58,0,5.2-.33,7.86-.99,2.66-.66,4.93-1.77,6.78-3.33v-12.76h-13.57v-9.26h23.54v25.88c-1.98,2.52-5.09,4.73-9.34,6.65-4.25,1.92-9.41,2.88-15.46,2.88"/>
        <rect class="cls-1" x="340.56" y="49.87" width="10.06" height="66.05"/>
        <path class="cls-1" d="M413.25,116.81c-4.49,0-8.73-.78-12.72-2.34-3.98-1.56-7.5-3.82-10.56-6.78-3.06-2.97-5.47-6.54-7.23-10.74-1.77-4.19-2.65-8.92-2.65-14.2s.88-10.09,2.65-14.29c1.77-4.19,4.19-7.76,7.28-10.69,3.08-2.93,6.62-5.17,10.6-6.69,3.98-1.53,8.19-2.29,12.63-2.29s8.64.76,12.63,2.29c3.98,1.53,7.52,3.76,10.6,6.69,3.08,2.94,5.51,6.5,7.28,10.69,1.77,4.19,2.65,8.96,2.65,14.29s-.88,10-2.65,14.2c-1.77,4.2-4.18,7.77-7.23,10.74-3.06,2.97-6.58,5.23-10.56,6.78-3.98,1.56-8.22,2.34-12.72,2.34M413.25,107.74c4.07,0,7.82-.96,11.23-2.88,3.41-1.92,6.14-4.72,8.18-8.4,2.04-3.68,3.06-8.22,3.06-13.61s-1.02-10.02-3.06-13.7c-2.04-3.68-4.75-6.47-8.13-8.36-3.39-1.89-7.14-2.83-11.28-2.83s-7.89.94-11.28,2.83c-3.38,1.89-6.1,4.67-8.13,8.36-2.04,3.68-3.06,8.25-3.06,13.7s1.05,9.93,3.14,13.61c2.1,3.68,4.85,6.49,8.27,8.4,3.42,1.92,7.1,2.88,11.05,2.88"/>
        <polygon class="cls-1" points="495.74 115.92 465.19 49.87 476.6 49.87 496.37 95.25 516.23 49.87 527.55 49.87 497.09 115.92 495.74 115.92"/>
        <path class="cls-1" d="M566.01,49.78h.99l31.81,66.14h-11.59l-5.66-12.94h-30.28l-5.66,12.94h-11.23l31.63-66.14ZM566.46,68.92l-3.95,8.99-7.19,15.99h22.29l-7.1-15.9-3.86-9.08h-.18Z"/>
        <polygon class="cls-1" points="670.43 115.92 631.79 73.14 632.06 80.33 632.06 115.92 622 115.92 622 49.78 623.25 49.78 662.07 93.09 661.71 85.54 661.71 49.87 671.78 49.87 671.78 115.92 670.43 115.92"/>
        <polygon class="cls-1" points="751.3 115.92 712.67 73.14 712.93 80.33 712.93 115.92 702.87 115.92 702.87 49.78 704.13 49.78 742.95 93.09 742.59 85.54 742.59 49.87 752.65 49.87 752.65 115.92 751.3 115.92"/>
        <path class="cls-1" d="M807.47,49.78h.99l31.81,66.14h-11.59l-5.66-12.94h-30.28l-5.66,12.94h-11.23l31.63-66.14ZM807.91,68.92l-3.95,8.99-7.19,15.99h22.29l-7.1-15.9-3.86-9.08h-.18Z"/>
        <path class="cls-1" d="M278.51,203c-5.6,0-10.07-1.14-13.42-3.41-3.35-2.27-5.77-5.54-7.26-9.79-1.49-4.25-2.23-9.3-2.23-15.13v-36.81h9.79v36.99c0,6.82,1.03,11.7,3.11,14.65,2.07,2.94,5.4,4.42,10.01,4.42s7.93-1.43,9.97-4.29c2.04-2.86,3.06-7.78,3.06-14.78v-36.99h9.88v36.81c0,8.98-1.87,15.94-5.6,20.9-3.73,4.96-9.5,7.43-17.31,7.43"/>
        <path class="cls-1" d="M331.23,202.13v-64.27h14.6c3.27,0,6.43.32,9.49.96,3.06.64,5.78,1.72,8.18,3.24,2.39,1.52,4.28,3.53,5.68,6.03,1.4,2.51,2.1,5.6,2.1,9.27,0,4.25-.99,7.96-2.97,11.1-1.98,3.15-4.98,5.57-9,7.26l15.3,26.41h-11.28l-12.94-24.31c-.99.06-2.2.1-3.63.13-1.43.03-2.61.05-3.54.05h-2.45v24.13h-9.53ZM340.76,170.04h6.21c3.2,0,5.78-.41,7.74-1.22,1.95-.82,3.45-1.85,4.5-3.1,1.05-1.25,1.76-2.62,2.14-4.11.38-1.49.57-2.87.57-4.15,0-2.86-.66-5.12-1.97-6.78-1.31-1.66-3.12-2.86-5.42-3.58-2.31-.73-4.94-1.09-7.92-1.09h-5.86v24.04Z"/>
        <path class="cls-1" d="M430.65,203c-4.37,0-8.5-.76-12.37-2.27-3.88-1.52-7.3-3.72-10.27-6.6-2.97-2.88-5.32-6.37-7.04-10.45-1.72-4.08-2.58-8.69-2.58-13.81s.86-9.82,2.58-13.9c1.72-4.08,4.08-7.55,7.08-10.41,3-2.86,6.44-5.03,10.32-6.51,3.88-1.49,7.97-2.23,12.29-2.23s8.41.74,12.29,2.23c3.88,1.49,7.31,3.66,10.32,6.51,3,2.86,5.36,6.33,7.08,10.41,1.72,4.08,2.58,8.72,2.58,13.9,0,6.47-1.34,12.1-4.02,16.87-2.68,4.78-6.21,8.54-10.58,11.28l7.96,12.33h-9.71l-5.77-8.83c-3.27.99-6.65,1.49-10.14,1.49M430.65,194.17c1.75,0,3.44-.18,5.07-.52l-5.86-9.53h9.79l3.76,6.12c2.74-1.98,4.94-4.68,6.6-8.09,1.66-3.41,2.49-7.48,2.49-12.2,0-5.3-.99-9.75-2.97-13.34-1.98-3.58-4.62-6.29-7.91-8.13-3.29-1.84-6.95-2.75-10.97-2.75s-7.68.92-10.97,2.75-5.93,4.55-7.91,8.13c-1.98,3.59-2.97,8.03-2.97,13.34s1.02,9.66,3.06,13.25c2.04,3.58,4.72,6.31,8.05,8.17,3.32,1.87,6.91,2.8,10.75,2.8"/>
        <path class="cls-1" d="M513.27,203c-5.6,0-10.07-1.14-13.42-3.41-3.35-2.27-5.77-5.54-7.26-9.79-1.48-4.25-2.23-9.3-2.23-15.13v-36.81h9.79v36.99c0,6.82,1.03,11.7,3.11,14.65,2.07,2.94,5.4,4.42,10.01,4.42s7.93-1.43,9.97-4.29c2.04-2.86,3.06-7.78,3.06-14.78v-36.99h9.88v36.81c0,8.98-1.87,15.94-5.6,20.9-3.73,4.96-9.5,7.43-17.31,7.43"/>
        <rect class="cls-1" x="566.61" y="137.86" width="9.79" height="64.27"/>
        <path class="cls-1" d="M623.09,203c-2.45,0-4.87-.31-7.26-.92-2.39-.61-4.52-1.37-6.38-2.27-1.87-.9-3.27-1.82-4.2-2.75l4.63-8.31c.64.52,1.65,1.21,3.02,2.05,1.37.85,2.96,1.59,4.76,2.23,1.81.64,3.61.96,5.42.96,2.97,0,5.47-.7,7.48-2.1,2.01-1.4,3.02-3.44,3.02-6.12,0-2.21-.58-4.05-1.75-5.51-1.17-1.46-2.7-2.74-4.59-3.85-1.89-1.11-3.93-2.17-6.12-3.19-2.19-1.02-4.27-2.17-6.25-3.45-2.27-1.51-4.26-3.53-5.94-6.03-1.69-2.51-2.54-5.74-2.54-9.71s.89-7.11,2.67-9.62c1.78-2.51,4.14-4.38,7.08-5.64,2.94-1.25,6.17-1.88,9.66-1.88,2.8,0,5.19.29,7.17.88,1.98.58,3.64,1.28,4.98,2.1,1.34.82,2.39,1.55,3.15,2.19l-4.63,7.96c-.99-1.05-2.48-2.02-4.46-2.93s-4.2-1.36-6.65-1.36c-2.86,0-5.13.66-6.82,1.97-1.69,1.31-2.54,3.25-2.54,5.81,0,2.27.76,4.21,2.27,5.81,1.52,1.6,3.45,3.06,5.81,4.37,2.36,1.31,4.79,2.64,7.3,3.98,2.51,1.34,4.72,2.92,6.65,4.72,1.57,1.4,2.91,3.15,4.02,5.25,1.11,2.1,1.66,4.46,1.66,7.08,0,3.97-.92,7.32-2.75,10.06-1.84,2.74-4.3,4.79-7.39,6.16-3.09,1.37-6.59,2.06-10.49,2.06"/>
        <path class="cls-1" d="M693.92,137.77h.96l30.95,64.35h-11.28l-5.51-12.59h-29.47l-5.51,12.59h-10.93l30.78-64.35ZM694.36,156.4l-3.85,8.74-6.99,15.56h21.68l-6.91-15.48-3.76-8.83h-.18Z"/>
        <path class="cls-1" d="M162.33,170.7c5.47-.8,9.73-5.33,10.11-10.93.02-.27.03-.54.03-.81v-70.67c0-3.53-2.86-6.39-6.39-6.39h-44.14c-1.35,0-2.44,1.09-2.44,2.44v6.17c0,1.35,1.09,2.44,2.44,2.44h39.49v60.89c0,3.28-2.66,5.93-5.93,5.93h-33.55c-1.35,0-2.44,1.09-2.44,2.44v6.18c0,1.35,1.09,2.44,2.44,2.44h38.67c.59,0,1.16-.04,1.73-.13"/>
        <path class="cls-1" d="M198.23,157.52h-3.43c-2.1,0-3.81,1.71-3.81,3.81v78.09c0,3.28-2.66,5.93-5.93,5.93h-81.94v-17.48h-.01s0-9.76,0-9.76V84.34c0-1.35-1.09-2.44-2.44-2.44h-6.17c-1.35,0-2.44,1.09-2.44,2.44v75.44h-47.04c-3.28,0-5.93-2.65-5.93-5.93V18.31h0v-1.33c0-3.28,2.66-5.93,5.93-5.93h39.75c2.99,0,5.67-2.24,5.83-5.23C90.75,2.64,88.22,0,85.07,0h-45.18c-.27,0-.54,0-.82.03-6.17.42-11.05,5.56-11.05,11.84v71.22h0v75.88c0,.27,0,.54.03.81.42,6.17,5.56,11.05,11.84,11.05h52.16v62.96h.01v20.19c0,1.35,1.09,2.44,2.44,2.44h95.67c6.28,0,11.42-4.88,11.84-11.05.02-.27.03-.54.03-.81v-83.21c0-2.1-1.71-3.81-3.81-3.81"/>
        <path class="cls-1" d="M.46,14.93c0,.33.01.66.04.99.03.17.05.34.06.52.01.15.02.3.02.45L.02,247.78c-.01,4.76,3.84,8.62,8.6,8.62,1.34,0,2.43-1.09,2.44-2.43l.54-227.88h.03V3.76c-.97,0-1.9.12-2.79.35C4.02,5.35.46,9.73.46,14.93"/>
        <path class="cls-1" d="M67.17,186.66c-.94-.94-2.23-1.55-3.66-1.61-3.17-.14-5.77,2.65-5.77,5.82v17.9c0,.14,0,.27,0,.4,0,.14,0,.29,0,.43v41.28c0,.16,0,.31.02.46v2.61c-.02,1.35,1.07,2.45,2.42,2.45h6.17c1.35,0,2.44-1.09,2.44-2.44v-63.4c0-.61-.09-1.2-.28-1.74-.27-.83-.74-1.57-1.34-2.17"/>
        <path class="cls-1" d="M38.8,188.83c-.27-.83-.73-1.57-1.34-2.18-.95-.94-2.24-1.55-3.66-1.61-3.17-.14-5.77,2.65-5.77,5.83v60.01c0,.18,0,.37.03.55h0s-.01,2.52-.01,2.52c0,1.35,1.09,2.45,2.44,2.45h6.17c1.35,0,2.44-1.09,2.44-2.44v-63.4c0-.6-.1-1.19-.29-1.73"/>
      </g>
    </g>
  </g>
</svg>